<?xml version="1.0" encoding="utf-8"?>
<!-- Generator: Adobe Illustrator 24.1.3, SVG Export Plug-In . SVG Version: 6.00 Build 0)  -->
<svg version="1.1" id="圖層_1" xmlns="http://www.w3.org/2000/svg" xmlns:xlink="http://www.w3.org/1999/xlink" x="0px" y="0px"
	 viewBox="0 0 940.2 214" style="enable-background:new 0 0 940.2 214;" xml:space="preserve">
<style type="text/css">
	.st0{fill:#F09293;}
	.st1{fill:none;}
</style>
<g>
	<path class="st0" d="M210.8,214c-1.8,0.1-3.4-1.3-3.5-3.1s1.3-3.4,3.1-3.5c0.1,0,0.3,0,0.4,0c36.3,0,65.8-29.5,65.8-65.8
		s-29.4-65.8-65.8-65.8c-15.6,0-42.6,36-66.4,67.8C117.2,179.8,91.6,214,72.6,214c-40,0.1-72.5-32.2-72.6-72.2
		c-0.1-38.9,30.5-70.9,69.4-72.5c1.8-40,35.6-70.9,75.5-69.2c37.5,1.7,67.5,31.7,69.2,69.2c40,1.7,71,35.4,69.3,75.4
		C281.8,183.5,249.7,214.1,210.8,214z M72.6,75.8c-36.3,0-65.8,29.5-65.8,65.8s29.4,65.7,65.8,65.8c15.6,0,42.6-36,66.4-67.8
		c25.6-34.1,49.8-66.4,68.4-70.1c-1.6-36.3-32.3-64.4-68.6-62.8c-35.2,1.6-62.9,30.6-62.9,65.8v3.3L72.6,75.8L72.6,75.8z"/>
	<circle class="st0" cx="141.7" cy="72.5" r="8.6"/>
	<circle class="st0" cx="89.9" cy="107.1" r="8.6"/>
	<circle class="st0" cx="55.6" cy="158.9" r="8.6"/>
	<path class="st0" d="M141.7,144.9c-1.8,0-3.3-1.5-3.3-3.3l0,0V72.5c-0.1-1.8,1.3-3.4,3.1-3.5s3.4,1.3,3.5,3.1c0,0.1,0,0.3,0,0.4
		v69.1C145.1,143.4,143.6,144.9,141.7,144.9z"/>
	<path class="st0" d="M126.4,165.2c-1.1,0-2.1-0.6-2.8-1.5l-36.5-54.8c-1-1.5-0.6-3.6,0.9-4.6s3.6-0.6,4.6,0.9l0,0l36.6,54.8
		c1,1.5,0.6,3.6-1,4.6C127.7,164.9,127.1,165.1,126.4,165.2L126.4,165.2z"/>
	<path class="st0" d="M107.2,188.8c-0.5,0-1-0.1-1.5-0.4l-51.6-26.6c-1.6-0.9-2.1-2.9-1.2-4.5c0.9-1.5,2.7-2.1,4.3-1.4l51.6,26.6
		c1.6,0.8,2.3,2.8,1.5,4.5C109.6,188.1,108.4,188.8,107.2,188.8L107.2,188.8z"/>
</g>
<rect y="0" class="st1" width="940.2" height="214"/>
<g>
	<path class="st0" d="M312.2,121.2c-0.4,0-0.6,0.2-0.7,0.6l-2.5,6.7c-0.8,2.1-1.3,4.3-1.3,5.3c0,1.6,0.7,2.3,2.5,2.5
		c0.9,0.2,2.2,0.2,2.9,0.3c1.2,0,1.5,0.4,1.5,0.8c0,0.7-0.7,0.8-1.7,0.8c-3.7,0-6.5-0.2-10.9-0.2c-0.9,0-6.3,0.2-10.4,0.2
		c-1.2,0-1.6-0.3-1.6-0.8c0-0.7,0.6-0.8,1.6-0.8c1-0.1,1.8-0.2,2.6-0.3c2.9-0.6,4.5-3.1,6.3-7.1l22-49.7c1.6-3.5,2.5-4.8,3.4-4.8
		c0.8,0,1.6,1.2,3,4.1c2.1,4.6,16,36.1,21.6,48.6c2.8,6.4,4.6,8.4,7.5,8.8c0.9,0.2,1.9,0.2,2.6,0.3c1.1,0,1.6,0.3,1.6,0.8
		c0,0.6-0.6,0.8-2.1,0.8c-8.1,0-17.4-0.2-22.7-0.2c-1.3,0-1.8-0.2-1.8-0.7c0-0.5,0.4-0.8,1.2-1c0.9-0.2,1.2-0.7,1-1.5l-5.5-13.1
		c-0.1-0.3-0.4-0.5-0.7-0.5H312.2z M328.7,114.6c0.5,0,0.5-0.2,0.4-0.4l-7.2-17.6c-0.2-0.6-0.4-0.4-0.6,0l-7,17.6
		c-0.1,0.2,0.1,0.4,0.3,0.4H328.7z"/>
	<path class="st0" d="M366.3,87c0.1-2.4,0.3-3.6,1.4-3.6c0.4,0,0.7,0,2.8,1.6c3.5,2.8,14.9,12.5,24,20.6c8.1,7.2,12,10.4,14.1,12.3
		l-0.4-25.2c-0.2-3.9-0.7-5.8-3.9-6.3c-0.9-0.2-1.8-0.2-3-0.3c-1-0.1-1.3-0.5-1.3-0.8c0-0.6,0.7-0.8,1.4-0.8c2.7,0,7.8,0.2,11.1,0.2
		c1.8,0,5.7-0.2,8.6-0.2c1.2,0,1.6,0.3,1.6,0.7c0,0.3-0.2,0.8-1.2,0.9c-0.9,0.1-1.2,0.1-1.6,0.2c-2.5,0.3-3.3,1.4-3.5,5.9
		c-0.7,13.4-0.9,28-1,42.3c0,4.1-0.5,4.9-1.6,4.9c-1.2,0-3.8-1.8-9.6-6.6c-5.1-4.3-10.9-9.3-14.5-12.5c-3.9-3.5-10.3-9-16.6-14.7
		l0.7,23.1c0.2,4.9,0.3,7,2.6,7.6c1.4,0.3,2.2,0.4,3.7,0.5c1.2,0.2,1.6,0.4,1.6,0.8c0,0.6-0.5,0.8-1.8,0.8c-2.1,0-4.3-0.2-9.5-0.2
		c-2.1,0-8.1,0.2-10.5,0.2c-1.2,0-1.6-0.2-1.6-0.8c0-0.4,0.3-0.7,1.3-0.8c0.7-0.1,1.2-0.1,2.1-0.2c3-0.4,3.7-2.1,3.9-8.6
		C366,113.1,366,96.5,366.3,87z"/>
	<path class="st0" d="M435.6,87c0.1-2.4,0.3-3.6,1.4-3.6c0.4,0,0.7,0,2.8,1.6c3.5,2.8,14.9,12.5,24,20.6c8.1,7.2,12,10.4,14.1,12.3
		l-0.4-25.2c-0.2-3.9-0.7-5.8-3.9-6.3c-0.9-0.2-1.8-0.2-3-0.3c-1-0.1-1.3-0.5-1.3-0.8c0-0.6,0.7-0.8,1.4-0.8c2.7,0,7.8,0.2,11.1,0.2
		c1.8,0,5.7-0.2,8.6-0.2c1.2,0,1.6,0.3,1.6,0.7c0,0.3-0.2,0.8-1.2,0.9c-0.9,0.1-1.2,0.1-1.6,0.2c-2.5,0.3-3.3,1.4-3.5,5.9
		c-0.7,13.4-0.9,28-1,42.3c0,4.1-0.5,4.9-1.6,4.9c-1.2,0-3.8-1.8-9.6-6.6c-5.1-4.3-10.9-9.3-14.5-12.5c-3.9-3.5-10.3-9-16.6-14.7
		l0.7,23.1c0.2,4.9,0.3,7,2.6,7.6c1.4,0.3,2.2,0.4,3.7,0.5c1.2,0.2,1.6,0.4,1.6,0.8c0,0.6-0.5,0.8-1.8,0.8c-2.1,0-4.3-0.2-9.5-0.2
		c-2.1,0-8.1,0.2-10.5,0.2c-1.2,0-1.6-0.2-1.6-0.8c0-0.4,0.3-0.7,1.3-0.8c0.7-0.1,1.2-0.1,2.1-0.2c3-0.4,3.7-2.1,3.9-8.6
		C435.3,113.1,435.3,96.5,435.6,87z"/>
	<path class="st0" d="M505.5,105c0-11.8-0.1-13.2-0.2-15.5c-0.2-1.8-0.9-3-2.6-3.3c-0.7-0.2-1.5-0.2-2.2-0.2
		c-1.1-0.1-1.2-0.5-1.2-0.9c0-0.4,0.4-0.7,1.6-0.7c4.4,0,7.9,0.2,11,0.2c1.3,0,20.2-0.1,21.4-0.1c1.4,0,3-0.1,4.2-0.3
		c0.5-0.2,0.9-0.2,1.1-0.2c0.4,0,0.6,0.3,0.5,0.7c-0.2,0.9-0.4,1.8-0.6,3.5c-0.1,1.8-0.2,3.3-0.4,7.7c0,0.6-0.3,1.2-0.8,1.2
		c-0.4,0-0.7-0.3-0.8-1c-0.2-1-0.2-1.6-0.4-2.6c-0.4-1.6-1.3-2.6-4.9-3c-2.7-0.2-8.7-0.3-11-0.3c-0.4,0-0.6,0.2-0.6,0.7v15.1
		c0,0.5,0.1,0.7,0.6,0.7c2.2,0,7.3,0,10.2-0.1c4-0.2,5-0.4,5.9-1.8c0.3-0.7,0.7-0.9,1-0.9c0.5,0,0.6,0.5,0.6,0.9
		c0,0.8-0.5,4-0.6,6.6c-0.1,1.6-0.2,5.3-0.2,6.2c0,1-0.2,1.2-0.7,1.2c-0.4,0-0.7-0.3-0.8-1.2c-0.1-0.4-0.1-0.9-0.2-1.4
		c-0.4-2.2-1.2-3.5-5.1-3.8c-2.3-0.2-7.9-0.2-10.2-0.2c-0.4,0-0.5,0.2-0.5,0.6v5.2c0,2.4-0.1,5.8,0,8.6c0.1,5,1,6.2,9.4,6.2
		c1.9,0,4.8-0.1,6.8-0.8c2.1-0.8,2.9-2.5,3.5-5.8c0.2-0.8,0.5-1.2,1-1.2c0.6,0,0.7,0.6,0.7,1.5c0,3.1-0.7,8.9-1.1,10.3
		c-0.6,1.8-1.2,1.9-3.9,1.9c-11,0-16.3-0.4-24.1-0.4c-3.5,0-7,0.2-11.2,0.2c-1.4,0-1.7-0.4-1.7-0.9c0-0.3,0.2-0.7,1.5-0.7
		c0.7-0.1,1.3-0.1,2.1-0.2c2.4-0.4,2.6-3.2,2.9-8.2c0-2.7,0.1-6.7,0.1-10.6V105z"/>
	<path class="st0" d="M581.6,99.9c0-13.4-0.1-14.4-0.2-17c-0.2-3-0.8-4.4-3.1-4.9c-0.8-0.2-1.9-0.2-2.8-0.3c-0.9,0-1.6-0.2-1.6-0.8
		s0.6-0.8,1.9-0.8c4.8,0,9,0.2,12.6,0.2c1.8,0,22.8-0.1,24.2-0.1c1.6,0,3.1-0.2,4.2-0.4c0.6-0.2,1.2-0.2,1.6-0.2
		c0.3,0,0.6,0.3,0.5,0.7c-0.1,0.6-0.4,2.2-0.6,4.2c-0.2,1.9-0.4,4.6-0.6,7.9c-0.1,1.1-0.3,1.4-0.9,1.4c-0.6,0-0.7-0.5-0.8-1.3
		c-0.1-1-0.1-1.4-0.3-2.5c-0.5-1.8-1.7-3.1-5.4-3.4c-3-0.2-10.6-0.4-13.2-0.4c-0.5,0-0.7,0.2-0.7,0.9v18.7c0,0.6,0.1,1,0.7,1
		c2.4,0.1,8.1,0,11.4-0.1c4.5-0.2,5.6-0.2,6.7-1.9c0.5-0.7,0.7-1.1,1.2-1.1c0.5,0,0.6,0.6,0.6,1.1c0,0.8-0.5,3.8-0.7,6.7
		c-0.1,1.8-0.2,6-0.2,6.9s-0.1,1.6-0.7,1.6c-0.5,0-0.8-0.5-0.8-1.4c-0.1-0.6-0.2-1.2-0.2-1.8c-0.3-2.2-1.5-3.7-5.4-4
		c-2.4-0.2-9.5-0.2-11.8-0.2c-0.4,0-0.5,0.3-0.5,1.1v5.7c0,7.9,0,13.1,0.4,16.5c0.2,2.4,0.7,4,3.8,4.5c1.2,0.2,2,0.2,2.8,0.3
		c1.2,0,1.8,0.2,1.8,0.7s-0.2,0.9-1.8,0.9c-4.6,0-5.3-0.2-13.9-0.2c-5.8,0-10.7,0.2-12.8,0.2c-1.2,0-1.7-0.3-1.7-0.8
		c0-0.4,0.2-0.7,1.5-0.8c0.8-0.1,1.2-0.2,2.1-0.3c2.2-0.3,2.6-2.5,2.9-5.8c0.3-4.4,0.3-8.1,0.3-16V99.9z"/>
	<path class="st0" d="M645.6,117.6c0,6.7-0.2,11.9,0.9,13.5c1.1,1.5,2.4,1.7,8.6,1.7c4.1,0,6.1-0.1,8.1-0.8c2.1-0.8,3.6-2.5,4.5-6.5
		c0.2-0.8,0.4-1.5,1.1-1.5c0.5,0,0.7,0.5,0.7,1.5c0,1.8-1.1,9-1.8,11c-0.7,1.9-1.2,1.9-3.9,1.9c-11.1,0-17.9-0.4-25.7-0.4
		c-3.5,0-7.2,0.2-11.4,0.2c-1.2,0-1.7-0.2-1.7-0.9c0-0.3,0.4-0.7,1.4-0.7c0.7-0.1,0.9-0.1,1.7-0.2c3-0.5,3.3-1.6,3.5-8.2
		c0-2.8,0.1-6.7,0.1-10.7V105c0-11.8-0.1-12.7-0.2-15c-0.2-2-0.8-3.1-2.6-3.6c-0.7-0.2-1.6-0.3-2.7-0.4c-0.8-0.1-1.5-0.2-1.5-0.8
		c0-0.6,0.6-0.8,2.1-0.8c4.4,0,8.1,0.2,11.2,0.2c0.4,0,10-0.2,12.6-0.2c1.3,0,1.6,0.3,1.6,0.7c0,0.7-0.7,0.9-1.3,0.9
		c-0.8,0.1-1.2,0.1-2.2,0.3c-2.1,0.3-2.6,1.6-2.8,4.2c-0.2,2.3-0.2,3.4-0.2,15.4V117.6z"/>
	<path class="st0" d="M674.7,111.6c0-14.9,10.2-28.2,31.8-28.2c18.8,0,30.5,12.6,30.5,26.6c0,16.7-11.6,29.3-31,29.3
		C684.1,139.2,674.7,124.2,674.7,111.6z M721.2,113.2c0-10.9-3.9-25.1-17.3-25.1c-6.3,0-13.5,3.2-13.5,19.9
		c0,13.2,5.3,26.2,17.5,26.2C712.5,134.3,721.2,132.6,721.2,113.2z"/>
	<path class="st0" d="M746.1,91.5c-1.2-3.1-2.1-4.7-3.9-5.1c-0.8-0.2-1.5-0.2-2.1-0.4c-0.9-0.2-1.2-0.5-1.2-0.9
		c0-0.4,0.5-0.7,1.6-0.7c4.6,0,9.9,0.2,11.1,0.2c2.1,0,7.7-0.2,11.8-0.2c1,0,1.6,0.3,1.6,0.8c0,0.5-0.5,0.8-1.2,0.8
		c-0.7,0.1-0.9,0.1-1.8,0.2c-1,0.2-1.6,0.7-1.6,1.6c0,0.9,0.7,3,1.9,6.3c0.7,2.1,5.9,17.4,8.6,23.9L783.4,87
		c0.7-1.8,1.3-2.5,2.1-2.5c1.1,0,1.5,1.2,2.5,3.4l14.6,30.4c2.3-6.3,5.6-16.7,7.6-23.5c0.9-3.2,1.6-5.3,1.6-6.3
		c0-1.4-0.5-2.2-4.5-2.5c-0.8,0-1.4-0.3-1.4-0.7c0-0.3,0.2-0.9,1.5-0.9c4.9,0,8.9,0.2,9.5,0.2c0.5,0,6.2-0.2,8.8-0.2
		c0.9,0,1.6,0.2,1.6,0.7c0,0.4-0.2,0.7-1.2,0.8c-0.7,0.1-1.1,0.1-2.3,0.3c-2.2,0.4-3.5,2.1-5.4,7.5c-3.1,8.3-10,26.5-15.7,40.7
		c-1,2.4-1.8,4.7-3.1,4.7c-1.1,0-1.7-1.2-2.9-3.6L782,106.4c-3.4,8-9.2,20.7-12.8,28.6c-1.2,2.5-2.3,4.2-3.5,4.2c-1,0-1.6-1.2-3-4.9
		L746.1,91.5z"/>
	<path class="st0" d="M834.5,105c0-11.8-0.1-13.2-0.2-15.5c-0.2-1.8-0.9-3-2.6-3.3c-0.7-0.2-1.5-0.2-2.2-0.2
		c-1.1-0.1-1.2-0.5-1.2-0.9c0-0.4,0.4-0.7,1.6-0.7c4.4,0,7.9,0.2,11,0.2c1.3,0,20.2-0.1,21.4-0.1c1.4,0,3-0.1,4.2-0.3
		c0.5-0.2,0.9-0.2,1.1-0.2c0.4,0,0.6,0.3,0.5,0.7c-0.2,0.9-0.4,1.8-0.6,3.5c-0.1,1.8-0.2,3.3-0.4,7.7c0,0.6-0.3,1.2-0.8,1.2
		c-0.4,0-0.7-0.3-0.8-1c-0.2-1-0.2-1.6-0.4-2.6c-0.4-1.6-1.3-2.6-4.9-3c-2.7-0.2-8.7-0.3-11-0.3c-0.4,0-0.6,0.2-0.6,0.7v15.1
		c0,0.5,0.1,0.7,0.6,0.7c2.2,0,7.3,0,10.2-0.1c4-0.2,5-0.4,5.9-1.8c0.3-0.7,0.7-0.9,1-0.9c0.5,0,0.6,0.5,0.6,0.9
		c0,0.8-0.5,4-0.6,6.6c-0.1,1.6-0.2,5.3-0.2,6.2c0,1-0.2,1.2-0.7,1.2c-0.4,0-0.7-0.3-0.8-1.2c-0.1-0.4-0.1-0.9-0.2-1.4
		c-0.4-2.2-1.2-3.5-5.1-3.8c-2.3-0.2-7.9-0.2-10.2-0.2c-0.4,0-0.5,0.2-0.5,0.6v5.2c0,2.4-0.1,5.8,0,8.6c0.1,5,1,6.2,9.4,6.2
		c1.9,0,4.8-0.1,6.8-0.8c2.1-0.8,2.9-2.5,3.5-5.8c0.2-0.8,0.5-1.2,1-1.2c0.6,0,0.7,0.6,0.7,1.5c0,3.1-0.7,8.9-1.1,10.3
		c-0.6,1.8-1.2,1.9-3.9,1.9c-11,0-16.3-0.4-24.1-0.4c-3.5,0-7,0.2-11.2,0.2c-1.4,0-1.7-0.4-1.7-0.9c0-0.3,0.2-0.7,1.5-0.7
		c0.7-0.1,1.3-0.1,2.1-0.2c2.4-0.4,2.6-3.2,2.9-8.2c0-2.7,0.1-6.7,0.1-10.6V105z"/>
	<path class="st0" d="M884.4,105c0-11.1-0.1-12.2-0.2-14.5c-0.2-3-1.5-4-3-4.2c-1.3-0.2-2-0.2-2.5-0.3c-0.9,0-1.2-0.4-1.2-0.8
		c0-0.4,0.2-0.8,1.5-0.8c3,0,10.5,0.2,11.4,0.2c1.2,0,9-0.2,12.7-0.2c7.4,0,12.5,0.7,15.5,2.4c3.9,2,7,5.5,7,11.1
		c0,5.6-3.8,10.1-9.8,14c3.9,5.9,9.1,13.7,13.7,18.8c3.8,4.4,5.5,5.4,7.8,5.8c0.7,0.2,1.4,0.2,2,0.2c0.7,0.1,1.2,0.5,1.2,0.9
		c0,0.7-0.8,0.7-1.5,0.7h-6.4c-8.6,0-12.1-0.8-14.8-2.6c-2.1-1.4-4.4-4.3-7.1-8.6c-3.5-5.8-4.7-8.1-6.1-10.3
		c-0.1-0.2-0.4-0.4-0.8-0.4l-4.9-0.1c-0.3,0-0.6,0.2-0.6,0.6v4.4c0,5.3,0.2,8.8,0.3,10.9c0.2,1.8,0.6,3.3,2.8,3.9
		c1,0.3,2.5,0.4,3.4,0.5c1.3,0.1,1.3,0.5,1.3,0.9c0,0.4-0.3,0.7-1.4,0.7c-5,0-13.7-0.2-14.1-0.2c-0.8,0-8.6,0.2-10.9,0.2
		c-1.2,0-1.5-0.4-1.5-0.9c0-0.4,0.5-0.7,1.3-0.7c0.7-0.1,1.7-0.1,2.5-0.2c1.5-0.3,2.1-1.6,2.3-4.1c0.3-3,0.4-7.7,0.4-14.7V105z
		 M898,109.5c0,0.5,0.3,0.8,0.7,1.1c1.4,0.7,4,1,6.1,1c1.6,0,3.4-0.3,4.5-1.1c1.3-1,2.5-3.9,2.5-8.5c0-10.1-6.9-12.5-10.6-12.5
		c-1.1,0-2.3,0-2.7,0.2c-0.3,0.2-0.5,0.2-0.5,0.8V109.5z"/>
</g>
</svg>
