<?xml version="1.0" encoding="utf-8"?>
<!-- Generator: Adobe Illustrator 24.1.3, SVG Export Plug-In . SVG Version: 6.00 Build 0)  -->
<svg version="1.1" id="圖層_1" xmlns="http://www.w3.org/2000/svg" xmlns:xlink="http://www.w3.org/1999/xlink" x="0px" y="0px"
	 viewBox="0 0 283.5 283.5" style="enable-background:new 0 0 283.5 283.5;" xml:space="preserve">
<style type="text/css">
	.st0{fill:none;}
	.st1{fill:#F09293;}
</style>
<g id="圖層_2_1_">
	<g id="圖層_1-2">
		<line class="st0" x1="79.7" y1="95.2" x2="203.8" y2="95.2"/>
		<path class="st1" d="M270.5,96H114c-7.2,0-13-5.8-13-13c0-7.2,5.8-13,13-13h156.5c7.2,0,13,5.8,13,13
			C283.5,90.2,277.7,96,270.5,96z"/>
		<line class="st0" x1="203.8" y1="141.7" x2="79.7" y2="141.7"/>
		<path class="st1" d="M270.5,154.8H114c-7.2,0-13-5.8-13-13c0-7.2,5.8-13,13-13l0,0h156.5c7.2,0,13,5.8,13,13
			C283.5,148.9,277.7,154.8,270.5,154.8z"/>
		<line class="st0" x1="203.8" y1="188.3" x2="79.7" y2="188.3"/>
		<path class="st1" d="M270.9,213.5H114.4c-7.2-0.3-12.9-6.3-12.6-13.5c0.3-6.9,5.8-12.5,12.6-12.6h156.5
			c7.2,0.3,12.9,6.3,12.6,13.5C283.2,207.8,277.7,213.2,270.9,213.5z"/>
		<rect y="0" class="st0" width="283.5" height="283.5"/>
	</g>
</g>
</svg>
